<svg width="268" height="70" viewBox="0 0 268 70" fill="none" xmlns="http://www.w3.org/2000/svg">
<path fill-rule="evenodd" clip-rule="evenodd" d="M37.5433 5.6422C37.8164 3.20276 36.0869 0.99998 33.6475 0.726908C31.208 0.435631 29.0052 2.18329 28.7322 4.62273C28.4045 7.40806 28.8596 10.7395 29.4422 14.162C31.0624 14.6536 32.628 15.3636 34.0844 16.201C35.65 12.5054 37.1792 8.84624 37.5433 5.6422ZM54.674 16.3466C53.7091 14.0892 51.0876 13.0697 48.8302 14.0346C45.8629 15.3271 42.7863 17.8576 39.6914 20.4609C40.8566 21.6078 41.9488 22.9003 42.8773 24.3021C46.3908 23.8652 49.7587 23.3372 52.362 22.2085C54.6194 21.2073 55.657 18.5858 54.674 16.3466ZM47.1918 4.44068C45.2257 2.9843 42.4404 3.38481 40.984 5.35092C38.763 8.33651 37.2702 12.7967 35.65 17.1476C36.1961 17.5117 36.7059 17.8758 37.1974 18.2581C37.5615 18.5494 37.9438 18.8589 38.3261 19.1683C42.0399 16.3648 45.8993 13.6341 48.1203 10.6485C49.5766 8.6824 49.1579 5.89707 47.1918 4.44068Z" fill="white"/>
<path d="M38.7449 40.0856C37.3795 41.5602 35.9231 42.9256 34.3757 44.2545C32.2093 46.1296 30.0066 47.9501 27.7674 49.6978C25.3643 48.2232 23.6349 47.4768 23.3436 47.8591C23.0887 48.205 24.09 49.4793 25.8923 51.1359C19.8483 55.6325 13.4584 59.6012 6.59521 62.8598C5.52113 63.3696 4.39243 63.7337 3.28194 64.1342C2.99066 64.2434 2.68118 64.2434 2.55375 64.2616C0.80609 64.4618 0.278152 63.9885 0.350971 62.3865C0.569428 57.3984 2.11683 52.7198 3.71886 48.0593C4.15577 46.785 4.61089 45.5107 5.08421 44.2363C7.50545 45.7109 9.2349 46.4755 9.52618 46.0932C9.83566 45.6745 8.37928 43.9997 5.93984 41.9061C7.6875 37.3913 9.63541 32.9494 11.9292 28.6895C16.5168 32.0938 20.5947 34.3329 21.0498 33.714C21.5049 33.095 18.137 29.7999 13.4948 26.3592L13.2946 26.2136C14.0956 24.8482 14.933 23.4829 15.825 22.1539C16.9355 20.4791 18.3009 18.9499 19.648 17.4571C21.4503 15.4728 23.7805 14.7992 26.3838 15.3818C34.7216 17.2386 40.5107 22.0265 43.2414 30.2369C43.7876 31.9117 43.2961 33.5501 42.4404 35.0611C41.8579 36.0806 41.2207 37.0455 40.5107 37.9557C36.1052 34.7334 32.2822 32.6581 31.8452 33.2407C31.4265 33.8232 34.4667 36.827 38.7449 40.0856Z" fill="white"/>
<path d="M92.4489 10.4026C86.678 10.4026 82.9278 12.7146 80.6522 17.1019H80.5248V14.3712C80.5248 12.4051 78.9228 10.8213 76.9567 10.8213C74.9906 10.8213 73.4067 12.4051 73.4067 14.3712V44.573C73.4067 46.5391 74.9906 48.1411 76.9567 48.1411H77.3026C79.2687 48.1411 80.8707 46.5391 80.8707 44.573V26.5866C80.8707 20.7065 84.2386 16.7925 89.8639 16.7925C95.3253 16.7925 97.9468 19.9601 97.9468 25.6218V44.573C97.9468 46.5391 99.5306 48.1411 101.497 48.1411H101.843C103.809 48.1411 105.393 46.5391 105.393 44.573V24.22C105.393 15.6274 100.696 10.4026 92.4489 10.4026Z" fill="white"/>
<path d="M128.422 10.3297C117.99 10.3297 111.182 17.9393 111.182 29.6086C111.182 41.296 117.917 48.578 128.731 48.578C135.43 48.578 140.965 45.6106 143.459 40.9866C144.387 39.2935 143.113 37.2 141.183 37.2H139.29C138.343 37.2 137.524 37.7461 137.032 38.5653C135.594 41.0412 132.572 42.534 128.877 42.534C122.76 42.534 118.7 38.2741 118.7 31.8114V31.3744H142.548C143.968 31.3744 145.134 30.2093 145.134 28.7894V28.753C145.134 17.4478 138.671 10.3297 128.422 10.3297ZM118.737 26.0768C119.155 20.3423 123.033 16.4101 128.403 16.4101C133.828 16.4101 137.506 20.2695 137.67 26.0768H118.737Z" fill="white"/>
<path d="M179.85 35.5979H177.866C176.792 35.5979 175.863 36.2715 175.463 37.2728C174.17 40.5679 171.221 42.3337 167.034 42.3337C161.045 42.3337 157.003 37.5094 157.003 29.4811C157.003 21.6349 160.99 16.6286 166.998 16.6286C171.33 16.6286 174.225 18.7767 175.408 21.8351C175.809 22.8546 176.737 23.5646 177.848 23.5646H179.832C181.561 23.5646 182.854 21.8715 182.29 20.2331C180.378 14.6078 174.917 10.3297 166.925 10.3297C156.384 10.3297 149.43 17.8665 149.43 29.4811C149.43 41.296 156.402 48.578 166.998 48.578C174.589 48.578 180.232 44.8642 182.308 38.984C182.89 37.3274 181.616 35.5979 179.85 35.5979Z" fill="white"/>
<path d="M202.206 42.2791C202.078 42.2609 201.932 42.2427 201.805 42.2427C199.347 41.9514 198.2 40.4222 198.2 37.5459V16.7014H202.406C204.044 16.7014 205.355 15.3724 205.355 13.7522C205.355 12.132 204.044 10.8212 202.406 10.8212H198.2V6.14261C198.2 5.12314 197.782 4.1947 197.108 3.52112C196.435 2.84754 195.524 2.42883 194.487 2.42883C192.448 2.42883 190.791 4.10367 190.791 6.14261V10.8212H188.57C186.95 10.8212 185.621 12.132 185.621 13.7522C185.621 15.3724 186.95 16.7014 188.57 16.7014H190.791V38.3105C190.791 45.5196 193.667 48.3777 201.131 48.3777C201.15 48.3777 201.168 48.3777 201.168 48.3777C202.023 48.3777 202.806 48.1228 203.462 47.6677C203.48 47.6677 203.498 47.6495 203.498 47.6495C204.263 47.1034 204.772 46.2113 204.772 45.2101C204.772 43.7173 203.662 42.4611 202.206 42.2791Z" fill="white"/>
<path d="M226.418 10.3297C220.592 10.3297 215.786 12.6963 213.329 16.3555C212.928 16.9745 212.728 17.648 212.728 18.3034C212.728 20.1239 214.184 21.8169 216.241 21.8169C217.443 21.8169 218.59 21.1798 219.154 20.1239C220.356 17.8665 222.923 16.4829 226.218 16.4829C231.206 16.4829 234.046 18.8313 234.046 23.0913V23.5464C234.046 24.9117 232.99 26.0404 231.624 26.1133L223.978 26.5502C214.767 27.1327 209.724 30.9193 209.724 37.4548C209.724 44.1178 214.876 48.5051 222.34 48.5051C227.419 48.5051 232.061 45.9747 234.119 41.915H234.282V44.5729C234.282 45.556 234.683 46.448 235.32 47.1034C235.975 47.7405 236.867 48.141 237.851 48.141C239.817 48.141 241.4 46.539 241.4 44.5729V22.5451C241.4 15.154 235.52 10.3297 226.418 10.3297ZM234.046 34.1234C234.046 39.0204 229.859 42.5704 224.324 42.5704C220.028 42.5704 217.243 40.5132 217.243 37.3092C217.243 34.0141 219.901 32.1208 224.98 31.8114L234.046 31.1924V34.1234Z" fill="white"/>
<path d="M265.158 10.439C260.752 10.439 257.33 12.9512 256.146 17.1019H256.019V14.3712C256.019 12.4051 254.417 10.8213 252.469 10.8213C250.503 10.8213 248.901 12.4051 248.901 14.3712V44.4091C248.901 45.4286 249.32 46.3752 249.993 47.0488C250.667 47.7224 251.595 48.1411 252.633 48.1411C254.69 48.1411 256.365 46.4662 256.365 44.4091V25.8766C256.365 20.6154 259.46 17.2111 264.375 17.2111C264.575 17.2111 264.794 17.2111 264.994 17.2293C266.523 17.284 267.761 16.0278 267.761 14.4986V13.0605C267.761 11.6223 266.596 10.439 265.158 10.439Z" fill="white"/>
<path d="M204.773 45.2101C204.773 46.2113 204.263 47.1034 203.498 47.6495C203.498 47.6495 203.48 47.6677 203.462 47.6677C202.988 47.9954 202.424 48.1774 201.805 48.1774C200.149 48.1774 198.82 46.8485 198.82 45.2101C198.82 43.5716 200.149 42.2427 201.805 42.2427C201.933 42.2427 202.078 42.2609 202.206 42.2791C203.662 42.4611 204.773 43.7173 204.773 45.2101Z" fill="white"/>
<path d="M74.2516 65.4308C73.533 65.4308 72.8796 65.2675 72.2916 64.9408C71.713 64.6141 71.2556 64.1521 70.9196 63.5548C70.593 62.9481 70.4296 62.2481 70.4296 61.4548C70.4296 60.6708 70.5976 59.9801 70.9336 59.3828C71.279 58.7761 71.7456 58.3141 72.3336 57.9968C72.9216 57.6701 73.5796 57.5068 74.3076 57.5068C75.0356 57.5068 75.6936 57.6701 76.2816 57.9968C76.8696 58.3141 77.3316 58.7715 77.6676 59.3688C78.013 59.9661 78.1856 60.6615 78.1856 61.4548C78.1856 62.2481 78.0083 62.9481 77.6536 63.5548C77.3083 64.1521 76.837 64.6141 76.2396 64.9408C75.6423 65.2675 74.9796 65.4308 74.2516 65.4308ZM74.2516 64.3108C74.709 64.3108 75.1383 64.2035 75.5396 63.9888C75.941 63.7741 76.263 63.4521 76.5056 63.0228C76.7576 62.5935 76.8836 62.0708 76.8836 61.4548C76.8836 60.8388 76.7623 60.3161 76.5196 59.8868C76.277 59.4575 75.9596 59.1401 75.5676 58.9348C75.1756 58.7201 74.751 58.6128 74.2936 58.6128C73.827 58.6128 73.3976 58.7201 73.0056 58.9348C72.623 59.1401 72.315 59.4575 72.0816 59.8868C71.8483 60.3161 71.7316 60.8388 71.7316 61.4548C71.7316 62.0801 71.8436 62.6075 72.0676 63.0368C72.301 63.4661 72.609 63.7881 72.9916 64.0028C73.3743 64.2081 73.7943 64.3108 74.2516 64.3108ZM89.0987 57.4928C90.032 57.4928 90.788 57.7775 91.3667 58.3468C91.9454 58.9068 92.2347 59.7188 92.2347 60.7828V65.3048H90.9747V60.9648C90.9747 60.1995 90.7834 59.6161 90.4007 59.2148C90.018 58.8041 89.4954 58.5988 88.8327 58.5988C88.1607 58.5988 87.624 58.8088 87.2227 59.2288C86.8307 59.6488 86.6347 60.2601 86.6347 61.0628V65.3048H85.3607V57.6328H86.6347V58.7248C86.8867 58.3328 87.2274 58.0295 87.6567 57.8148C88.0954 57.6001 88.576 57.4928 89.0987 57.4928ZM101.09 54.9448V65.3048H99.8158V54.9448H101.09ZM109.419 56.3868C109.176 56.3868 108.971 56.3028 108.803 56.1348C108.635 55.9668 108.551 55.7615 108.551 55.5188C108.551 55.2761 108.635 55.0708 108.803 54.9028C108.971 54.7348 109.176 54.6508 109.419 54.6508C109.652 54.6508 109.848 54.7348 110.007 54.9028C110.175 55.0708 110.259 55.2761 110.259 55.5188C110.259 55.7615 110.175 55.9668 110.007 56.1348C109.848 56.3028 109.652 56.3868 109.419 56.3868ZM110.035 57.6328V65.3048H108.761V57.6328H110.035ZM121.444 57.4928C122.378 57.4928 123.134 57.7775 123.712 58.3468C124.291 58.9068 124.58 59.7188 124.58 60.7828V65.3048H123.32V60.9648C123.32 60.1995 123.129 59.6161 122.746 59.2148C122.364 58.8041 121.841 58.5988 121.178 58.5988C120.506 58.5988 119.97 58.8088 119.568 59.2288C119.176 59.6488 118.98 60.2601 118.98 61.0628V65.3048H117.706V57.6328H118.98V58.7248C119.232 58.3328 119.573 58.0295 120.002 57.8148C120.441 57.6001 120.922 57.4928 121.444 57.4928ZM139.161 61.1748C139.161 61.4175 139.147 61.6741 139.119 61.9448H132.987C133.034 62.7008 133.291 63.2935 133.757 63.7228C134.233 64.1428 134.807 64.3528 135.479 64.3528C136.03 64.3528 136.487 64.2268 136.851 63.9748C137.225 63.7135 137.486 63.3681 137.635 62.9388H139.007C138.802 63.6761 138.391 64.2781 137.775 64.7448C137.159 65.2021 136.394 65.4308 135.479 65.4308C134.751 65.4308 134.098 65.2675 133.519 64.9408C132.95 64.6141 132.502 64.1521 132.175 63.5548C131.849 62.9481 131.685 62.2481 131.685 61.4548C131.685 60.6615 131.844 59.9661 132.161 59.3688C132.479 58.7715 132.922 58.3141 133.491 57.9968C134.07 57.6701 134.733 57.5068 135.479 57.5068C136.207 57.5068 136.851 57.6655 137.411 57.9828C137.971 58.3001 138.401 58.7388 138.699 59.2988C139.007 59.8495 139.161 60.4748 139.161 61.1748ZM137.845 60.9088C137.845 60.4235 137.738 60.0081 137.523 59.6628C137.309 59.3081 137.015 59.0421 136.641 58.8648C136.277 58.6781 135.871 58.5848 135.423 58.5848C134.779 58.5848 134.229 58.7901 133.771 59.2008C133.323 59.6115 133.067 60.1808 133.001 60.9088H137.845ZM158.74 57.5068C159.402 57.5068 159.981 57.6515 160.476 57.9408C160.98 58.2301 161.353 58.5941 161.596 59.0328V57.6328H162.884V65.4728C162.884 66.1728 162.734 66.7935 162.436 67.3348C162.137 67.8855 161.708 68.3148 161.148 68.6228C160.597 68.9308 159.953 69.0848 159.216 69.0848C158.208 69.0848 157.368 68.8468 156.696 68.3708C156.024 67.8948 155.627 67.2461 155.506 66.4248H156.766C156.906 66.8915 157.195 67.2648 157.634 67.5448C158.072 67.8341 158.6 67.9788 159.216 67.9788C159.916 67.9788 160.485 67.7595 160.924 67.3208C161.372 66.8821 161.596 66.2661 161.596 65.4728V63.8628C161.344 64.3108 160.97 64.6841 160.476 64.9828C159.981 65.2815 159.402 65.4308 158.74 65.4308C158.058 65.4308 157.438 65.2628 156.878 64.9268C156.327 64.5908 155.893 64.1195 155.576 63.5128C155.258 62.9061 155.1 62.2155 155.1 61.4408C155.1 60.6568 155.258 59.9708 155.576 59.3828C155.893 58.7855 156.327 58.3235 156.878 57.9968C157.438 57.6701 158.058 57.5068 158.74 57.5068ZM161.596 61.4548C161.596 60.8761 161.479 60.3721 161.246 59.9428C161.012 59.5135 160.695 59.1868 160.294 58.9628C159.902 58.7295 159.468 58.6128 158.992 58.6128C158.516 58.6128 158.082 58.7248 157.69 58.9488C157.298 59.1728 156.985 59.4995 156.752 59.9288C156.518 60.3581 156.402 60.8621 156.402 61.4408C156.402 62.0288 156.518 62.5421 156.752 62.9808C156.985 63.4101 157.298 63.7415 157.69 63.9748C158.082 64.1988 158.516 64.3108 158.992 64.3108C159.468 64.3108 159.902 64.1988 160.294 63.9748C160.695 63.7415 161.012 63.4101 161.246 62.9808C161.479 62.5421 161.596 62.0335 161.596 61.4548ZM171.81 58.8788C172.034 58.4401 172.352 58.0995 172.762 57.8568C173.182 57.6141 173.691 57.4928 174.288 57.4928V58.8088H173.952C172.524 58.8088 171.81 59.5835 171.81 61.1328V65.3048H170.536V57.6328H171.81V58.8788ZM184.605 65.4308C183.886 65.4308 183.233 65.2675 182.645 64.9408C182.066 64.6141 181.609 64.1521 181.273 63.5548C180.946 62.9481 180.783 62.2481 180.783 61.4548C180.783 60.6708 180.951 59.9801 181.287 59.3828C181.632 58.7761 182.099 58.3141 182.687 57.9968C183.275 57.6701 183.933 57.5068 184.661 57.5068C185.389 57.5068 186.047 57.6701 186.635 57.9968C187.223 58.3141 187.685 58.7715 188.021 59.3688C188.366 59.9661 188.539 60.6615 188.539 61.4548C188.539 62.2481 188.362 62.9481 188.007 63.5548C187.662 64.1521 187.19 64.6141 186.593 64.9408C185.996 65.2675 185.333 65.4308 184.605 65.4308ZM184.605 64.3108C185.062 64.3108 185.492 64.2035 185.893 63.9888C186.294 63.7741 186.616 63.4521 186.859 63.0228C187.111 62.5935 187.237 62.0708 187.237 61.4548C187.237 60.8388 187.116 60.3161 186.873 59.8868C186.63 59.4575 186.313 59.1401 185.921 58.9348C185.529 58.7201 185.104 58.6128 184.647 58.6128C184.18 58.6128 183.751 58.7201 183.359 58.9348C182.976 59.1401 182.668 59.4575 182.435 59.8868C182.202 60.3161 182.085 60.8388 182.085 61.4548C182.085 62.0801 182.197 62.6075 182.421 63.0368C182.654 63.4661 182.962 63.7881 183.345 64.0028C183.728 64.2081 184.148 64.3108 184.605 64.3108ZM195.238 61.4548C195.238 60.6615 195.397 59.9708 195.714 59.3828C196.032 58.7855 196.47 58.3235 197.03 57.9968C197.6 57.6701 198.248 57.5068 198.976 57.5068C199.919 57.5068 200.694 57.7355 201.3 58.1928C201.916 58.6501 202.322 59.2848 202.518 60.0968H201.146C201.016 59.6301 200.759 59.2615 200.376 58.9908C200.003 58.7201 199.536 58.5848 198.976 58.5848C198.248 58.5848 197.66 58.8368 197.212 59.3408C196.764 59.8355 196.54 60.5401 196.54 61.4548C196.54 62.3788 196.764 63.0928 197.212 63.5968C197.66 64.1008 198.248 64.3528 198.976 64.3528C199.536 64.3528 200.003 64.2221 200.376 63.9608C200.75 63.6995 201.006 63.3261 201.146 62.8408H202.518C202.313 63.6248 201.902 64.2548 201.286 64.7308C200.67 65.1975 199.9 65.4308 198.976 65.4308C198.248 65.4308 197.6 65.2675 197.03 64.9408C196.47 64.6141 196.032 64.1521 195.714 63.5548C195.397 62.9575 195.238 62.2575 195.238 61.4548ZM216.718 61.1748C216.718 61.4175 216.704 61.6741 216.676 61.9448H210.544C210.591 62.7008 210.847 63.2935 211.314 63.7228C211.79 64.1428 212.364 64.3528 213.036 64.3528C213.587 64.3528 214.044 64.2268 214.408 63.9748C214.781 63.7135 215.043 63.3681 215.192 62.9388H216.564C216.359 63.6761 215.948 64.2781 215.332 64.7448C214.716 65.2021 213.951 65.4308 213.036 65.4308C212.308 65.4308 211.655 65.2675 211.076 64.9408C210.507 64.6141 210.059 64.1521 209.732 63.5548C209.405 62.9481 209.242 62.2481 209.242 61.4548C209.242 60.6615 209.401 59.9661 209.718 59.3688C210.035 58.7715 210.479 58.3141 211.048 57.9968C211.627 57.6701 212.289 57.5068 213.036 57.5068C213.764 57.5068 214.408 57.6655 214.968 57.9828C215.528 58.3001 215.957 58.7388 216.256 59.2988C216.564 59.8495 216.718 60.4748 216.718 61.1748ZM215.402 60.9088C215.402 60.4235 215.295 60.0081 215.08 59.6628C214.865 59.3081 214.571 59.0421 214.198 58.8648C213.834 58.6781 213.428 58.5848 212.98 58.5848C212.336 58.5848 211.785 58.7901 211.328 59.2008C210.88 59.6115 210.623 60.1808 210.558 60.9088H215.402ZM225.174 58.8788C225.398 58.4401 225.715 58.0995 226.126 57.8568C226.546 57.6141 227.054 57.4928 227.652 57.4928V58.8088H227.316C225.888 58.8088 225.174 59.5835 225.174 61.1328V65.3048H223.9V57.6328H225.174V58.8788ZM235.28 56.3868C235.038 56.3868 234.832 56.3028 234.664 56.1348C234.496 55.9668 234.412 55.7615 234.412 55.5188C234.412 55.2761 234.496 55.0708 234.664 54.9028C234.832 54.7348 235.038 54.6508 235.28 54.6508C235.514 54.6508 235.71 54.7348 235.868 54.9028C236.036 55.0708 236.12 55.2761 236.12 55.5188C236.12 55.7615 236.036 55.9668 235.868 56.1348C235.71 56.3028 235.514 56.3868 235.28 56.3868ZM235.896 57.6328V65.3048H234.622V57.6328H235.896ZM250.568 61.1748C250.568 61.4175 250.554 61.6741 250.526 61.9448H244.394C244.44 62.7008 244.697 63.2935 245.164 63.7228C245.64 64.1428 246.214 64.3528 246.886 64.3528C247.436 64.3528 247.894 64.2268 248.258 63.9748C248.631 63.7135 248.892 63.3681 249.042 62.9388H250.414C250.208 63.6761 249.798 64.2781 249.182 64.7448C248.566 65.2021 247.8 65.4308 246.886 65.4308C246.158 65.4308 245.504 65.2675 244.926 64.9408C244.356 64.6141 243.908 64.1521 243.582 63.5548C243.255 62.9481 243.092 62.2481 243.092 61.4548C243.092 60.6615 243.25 59.9661 243.568 59.3688C243.885 58.7715 244.328 58.3141 244.898 57.9968C245.476 57.6701 246.139 57.5068 246.886 57.5068C247.614 57.5068 248.258 57.6655 248.818 57.9828C249.378 58.3001 249.807 58.7388 250.106 59.2988C250.414 59.8495 250.568 60.4748 250.568 61.1748ZM249.252 60.9088C249.252 60.4235 249.144 60.0081 248.93 59.6628C248.715 59.3081 248.421 59.0421 248.048 58.8648C247.684 58.6781 247.278 58.5848 246.83 58.5848C246.186 58.5848 245.635 58.7901 245.178 59.2008C244.73 59.6115 244.473 60.1808 244.408 60.9088H249.252ZM260.465 65.4308C259.877 65.4308 259.35 65.3328 258.883 65.1368C258.417 64.9315 258.048 64.6515 257.777 64.2968C257.507 63.9328 257.357 63.5175 257.329 63.0508H258.645C258.683 63.4335 258.86 63.7461 259.177 63.9888C259.504 64.2315 259.929 64.3528 260.451 64.3528C260.937 64.3528 261.319 64.2455 261.599 64.0308C261.879 63.8161 262.019 63.5455 262.019 63.2188C262.019 62.8828 261.87 62.6355 261.571 62.4768C261.273 62.3088 260.811 62.1455 260.185 61.9868C259.616 61.8375 259.149 61.6881 258.785 61.5388C258.431 61.3801 258.123 61.1515 257.861 60.8528C257.609 60.5448 257.483 60.1435 257.483 59.6488C257.483 59.2568 257.6 58.8975 257.833 58.5708C258.067 58.2441 258.398 57.9875 258.827 57.8008C259.257 57.6048 259.747 57.5068 260.297 57.5068C261.147 57.5068 261.833 57.7215 262.355 58.1508C262.878 58.5801 263.158 59.1681 263.195 59.9148H261.921C261.893 59.5135 261.73 59.1915 261.431 58.9488C261.142 58.7061 260.75 58.5848 260.255 58.5848C259.798 58.5848 259.434 58.6828 259.163 58.8788C258.893 59.0748 258.757 59.3315 258.757 59.6488C258.757 59.9008 258.837 60.1108 258.995 60.2788C259.163 60.4375 259.369 60.5681 259.611 60.6708C259.863 60.7641 260.209 60.8715 260.647 60.9928C261.198 61.1421 261.646 61.2915 261.991 61.4408C262.337 61.5808 262.631 61.7955 262.873 62.0848C263.125 62.3741 263.256 62.7521 263.265 63.2188C263.265 63.6388 263.149 64.0168 262.915 64.3528C262.682 64.6888 262.351 64.9548 261.921 65.1508C261.501 65.3375 261.016 65.4308 260.465 65.4308Z" fill="white"/>
</svg>
